<?xml version="1.0" encoding="UTF-8"?>
<svg width="1024" height="1024" viewBox="0 0 1024 1024" fill="none" xmlns="http://www.w3.org/2000/svg">
  <defs>
    <linearGradient id="bgGradient" x1="128" y1="128" x2="896" y2="896" gradientUnits="userSpaceOnUse">
      <stop offset="0" stop-color="#0A66C2"/>
      <stop offset="0.55" stop-color="#3B82F6"/>
      <stop offset="1" stop-color="#EC4899"/>
    </linearGradient>
    <radialGradient id="glowGradient" cx="0" cy="0" r="1" gradientUnits="userSpaceOnUse" gradientTransform="translate(512 360) rotate(90) scale(420)">
      <stop offset="0" stop-color="#FFFFFF" stop-opacity="0.32"/>
      <stop offset="1" stop-color="#FFFFFF" stop-opacity="0"/>
    </radialGradient>
    <linearGradient id="pickGradient" x1="412" y1="360" x2="612" y2="620" gradientUnits="userSpaceOnUse">
      <stop offset="0" stop-color="#8AB4FF"/>
      <stop offset="1" stop-color="#F472B6"/>
    </linearGradient>
    <filter id="shadow" x="190" y="120" width="644" height="774" filterUnits="userSpaceOnUse" color-interpolation-filters="sRGB">
      <feFlood flood-opacity="0" result="BackgroundImageFix"/>
      <feColorMatrix in="SourceAlpha" type="matrix" values="0 0 0 0 0 0 0 0 0 0 0 0 0 0 0 0 0 0 127 0" result="hardAlpha"/>
      <feOffset dy="20"/>
      <feGaussianBlur stdDeviation="24"/>
      <feComposite in2="hardAlpha" operator="out"/>
      <feColorMatrix type="matrix" values="0 0 0 0 0.0313725 0 0 0 0 0.152941 0 0 0 0 0.286275 0 0 0 0.3 0"/>
      <feBlend mode="normal" in2="BackgroundImageFix" result="effect1_dropShadow_1_1"/>
      <feBlend mode="normal" in="SourceGraphic" in2="effect1_dropShadow_1_1" result="shape"/>
    </filter>
  </defs>

  <!-- App icon base -->
  <rect x="96" y="96" width="832" height="832" rx="220" fill="url(#bgGradient)"/>
  <rect x="96" y="96" width="832" height="832" rx="220" fill="url(#glowGradient)"/>

  <!-- Main mark: location pin -->
  <g filter="url(#shadow)">
    <path d="M512 188C392.706 188 296 284.706 296 404C296 543.5 474.5 766.5 498.5 794.5C506.1 803.2 517.9 803.2 525.5 794.5C549.5 766.5 728 543.5 728 404C728 284.706 631.294 188 512 188Z" fill="#FFFFFF"/>
  </g>

  <!-- Inner guitar-pick mark -->
  <path d="M512 302C563.2 302 609.4 333.2 627.8 381.4C646.5 430.3 627.1 488.1 582.4 533.8L512 605L441.6 533.8C396.9 488.1 377.5 430.3 396.2 381.4C414.6 333.2 460.8 302 512 302Z" fill="url(#pickGradient)"/>

  <!-- Music note -->
  <circle cx="470" cy="536" r="44" fill="#FFFFFF"/>
  <circle cx="626" cy="490" r="39" fill="#FFFFFF"/>
  <rect x="548" y="348" width="30" height="190" rx="15" fill="#FFFFFF"/>
  <path d="M563 364L665 394V450L563 420V364Z" fill="#FFFFFF"/>

  <!-- Travel sparkle -->
  <path d="M732 286L744 314L772 326L744 338L732 366L720 338L692 326L720 314L732 286Z" fill="#F59E0B"/>
</svg>
